# xmcd
#
# Track frame offsets: 
#        150
#        32342
#        71435
#        112194
#        133620
#        159348
#        181107
#        226837
#        265696
#        308176
#
# Disc length: 4697 seconds
#
# Revision: 1
# Processed by: cddbd v1.5.2PL0 Copyright (c) Steve Scherf et al.
# Submitted via: ExactAudioCopy v1.0b3
#
DISCID=7712570a
DTITLE=Christoph Scholder - Oktoberfest
DYEAR=2011
DGENRE=Hörbuch
TTITLE0=Oktoberfest 30
TTITLE1=Oktoberfest 31
TTITLE2=Oktoberfest 32
TTITLE3=Oktoberfest 33
TTITLE4=Oktoberfest 34
TTITLE5=Oktoberfest 35
TTITLE6=Oktoberfest 36
TTITLE7=Oktoberfest 37
TTITLE8=Oktoberfest 38
TTITLE9=Oktoberfest 39
EXTD=
EXTT0=
EXTT1=
EXTT2=
EXTT3=
EXTT4=
EXTT5=
EXTT6=
EXTT7=
EXTT8=
EXTT9=
PLAYORDER=
